<svg xmlns="http://www.w3.org/2000/svg" viewBox="0 0 100 100"><path d="M30,50 C30,40 40,30 50,30 C60,30 70,40 70,50 C70,60 60,70 50,70 C40,70 30,60 30,50 Z" fill="#666"/><path d="M30,50 C30,45 45,40 50,40 C55,40 70,45 70,50" fill="none" stroke="#fff" stroke-width="2"/><circle cx="40" cy="45" r="5" fill="#fff"/><circle cx="60" cy="45" r="5" fill="#fff"/><circle cx="42" cy="45" r="2" fill="#000"/><circle cx="62" cy="45" r="2" fill="#000"/><path d="M20,50 C20,45 15,40 10,40 L5,45 L10,50 L20,50 Z" fill="#666"/><path d="M80,50 C80,45 85,40 90,40 L95,45 L90,50 L80,50 Z" fill="#666"/><path d="M50,70 L50,80 L60,85 L50,90 L40,85 L50,80" fill="#666"/></svg>
